<svg width="105" height="105" viewBox="0 0 105 105" fill="none" xmlns="http://www.w3.org/2000/svg">
<g clip-path="url(#clip0_8658_737)">
<path d="M52.5 0C23.507 0 0 23.507 0 52.5C0 81.493 23.507 105 52.5 105C81.493 105 105 81.493 105 52.5C105 23.507 81.493 0 52.5 0ZM52.5 98.7773C26.9818 98.7773 6.22274 78.0182 6.22274 52.5C6.22274 26.9818 26.9918 6.2327 52.5 6.2327C78.0083 6.2327 98.7773 26.9918 98.7773 52.51C98.7773 78.0282 78.0182 98.7872 52.5 98.7872V98.7773Z" fill="#22C55E"/>
<path d="M64.7762 35.9028C63.7308 34.5288 61.7793 34.2699 60.4153 35.3054C59.0413 36.3408 58.7825 38.3022 59.8179 39.6663L67.2056 49.3837H29.2518C27.5294 49.3837 26.1355 50.7776 26.1355 52.5C26.1355 54.2225 27.5294 55.6164 29.2518 55.6164H67.2056L59.8179 65.3338C58.7825 66.7078 59.0413 68.6592 60.4153 69.6947C60.9828 70.1228 61.64 70.3319 62.2971 70.3319C63.233 70.3319 64.1689 69.9038 64.7762 69.0973L75.9572 54.3818C76.8035 53.2667 76.8035 51.7234 75.9572 50.6183L64.7762 35.9028Z" fill="#22C55E"/>
</g>
<defs>
<clipPath id="clip0_8658_737">
<rect width="105" height="105" fill="white"/>
</clipPath>
</defs>
</svg>
