<svg width="16" height="16" viewBox="0 0 16 16" fill="none" xmlns="http://www.w3.org/2000/svg">
<g clip-path="url(#clip0_8701_857)">
<path d="M8.00004 1.33337C4.32004 1.33337 1.33337 4.32004 1.33337 8.00004C1.33337 11.68 4.32004 14.6667 8.00004 14.6667C11.68 14.6667 14.6667 11.68 14.6667 8.00004C14.6667 4.32004 11.68 1.33337 8.00004 1.33337ZM8.00004 11.3334C7.63337 11.3334 7.33337 11.0334 7.33337 10.6667V8.00004C7.33337 7.63337 7.63337 7.33337 8.00004 7.33337C8.36671 7.33337 8.66671 7.63337 8.66671 8.00004V10.6667C8.66671 11.0334 8.36671 11.3334 8.00004 11.3334ZM8.66671 6.00004H7.33337V4.66671H8.66671V6.00004Z" fill="#66C397"/>
</g>
<defs>
<clipPath id="clip0_8701_857">
<rect width="16" height="16" fill="white"/>
</clipPath>
</defs>
</svg>
