<?xml version="1.0" encoding="UTF-8"?>
<svg id="Layer_1" data-name="Layer 1" xmlns="http://www.w3.org/2000/svg" viewBox="0 0 320 48">
  <defs>
    <style>
      .cls-1 {
        fill: #fff;
      }

      .cls-2 {
        fill: #016648;
      }
    </style>
  </defs>
  <rect class="cls-2" x="-6.83" y="-12.62" width="331.66" height="71.23"/>
  <g>
    <path class="cls-1" d="m156.54,23.72c2.48-.85,2.86-2.86,2.86-4.56,0-2.54-1.78-4.79-7.12-4.79h-9.98v19.18h9.9c5.34,0,7.35-2.78,7.35-5.49,0-3.33-3.01-4.34-3.01-4.34Zm-9.51-5.11h6.65c.76.15,1.31.76,1.31,1.55s-.61,1.46-1.4,1.63h-6.65l.08-3.18Zm6.34,10.53h-6.42v-3.24h6.51c.85.08,1.4.76,1.4,1.55.15.91-.55,1.7-1.48,1.7Z"/>
    <path class="cls-1" d="m181.81,14.44h16.87v4.17h-12.14v3.09h10.98v4.17h-10.98v3.33h12.14v4.41h-16.87V14.44Z"/>
    <path class="cls-1" d="m172.07,14.44h-10.21v19.18h4.64v-7.73h5.19c1.46,0,2.63,1.23,2.63,2.71v5.02h4.56v-6.19c0-2.86-2.78-3.71-2.78-3.71,0,0,2.86-.85,2.86-4.26,0-4.17-3.56-5.02-6.89-5.02Zm2.56,5.95c-.08.61-.7,1.31-1.46,1.31h-6.57v-3.09h6.57c.78,0,1.4.55,1.46,1.31v.47Z"/>
    <path class="cls-1" d="m139.29,28.98c-.08,0-6.42.15-8.58-.08-3.5-.3-4.81-2.92-4.81-5.09,0-2.63,1.78-4.56,4.64-4.96,1.31-.15,8.58-.08,8.67-.08h.15v-4.32h-8.35c-.93.08-2.48.15-4.03.78-1.46.7-2.78,1.7-3.79,3.01-1.23,1.7-1.86,3.64-1.86,5.72,0,.61.08,1.31.15,1.93.61,2.95,2.48,5.34,5.25,6.57.93.38,2.31.93,5.19,1.08h7.42v-4.64l-.04.08Z"/>
  </g>
</svg>