<?xml version="1.0" encoding="UTF-8"?>
<svg id="Layer_1" data-name="Layer 1" xmlns="http://www.w3.org/2000/svg" viewBox="0 0 320 48">
  <defs>
    <style>
      .cls-1 {
        fill: #fff;
      }

      .cls-2 {
        fill: #002c51;
      }
    </style>
  </defs>
  <rect class="cls-2" x="-8.15" y="-7" width="336.3" height="62"/>
  <path id="path813" class="cls-1" d="m208.82,15.11v15.65c0,.78.41,1.24.82,1.52.45.29,1.11.45,1.98.45.58,0,1.28-.16,1.28-.16v-1.4c-.21,0-.41.04-.62.04-1.32,0-1.52-.49-1.52-1.07v-14.95h-1.94v-.08Zm-41.35.16c-1.48,0-2.8.45-3.75,1.28-.91.82-1.44,1.94-1.44,3.13,0,1.32.54,2.39,1.65,3.21.99.74,2.31,1.19,3.58,1.65,2.18.78,4.24,1.48,4.24,3.5,0,.91-.29,1.65-.86,2.18-.62.58-1.52.86-2.72.86-2.1,0-3.62-1.15-4.49-3.42l-1.89.49c.41.91,1.11,2.22,2.1,3.13,1.11.99,2.47,1.44,4.16,1.44,2.02,0,3.54-.54,4.53-1.56,1.03-1.07,1.28-2.47,1.28-3.46,0-1.4-.58-2.47-1.77-3.29-1.03-.74-2.39-1.24-3.67-1.65-2.14-.74-4.16-1.4-4.12-3.21,0-.82.29-1.48.82-1.94.54-.45,1.28-.7,2.26-.7s1.94.29,2.64.86c.66.49,1.11,1.28,1.32,2.1l1.81-.25c-.74-2.72-2.72-4.37-5.68-4.37Zm-83.68.21v16.97h1.98v-15.53l.04.04,4.65,15.48h1.52l4.69-15.48.04-.04v15.53h1.98V15.48h-3.25l-4.16,13.63v.04l-.04-.04-4.16-13.63h-3.29Zm93.19.37v4.08h-1.89v1.56h1.89v9.27c0,.78.37,1.24.78,1.52.45.29,1.11.45,1.98.45.58,0,1.32-.16,1.32-.16v-1.4c-.21,0-.45.04-.66.04-1.32,0-1.44-.49-1.44-1.07v-8.57h2.1v-1.56h-2.1v-4.08h-1.98v-.08Zm-70.42,3.83c-1.65,0-3.05.66-4.04,1.89-.91,1.15-1.4,2.8-1.4,4.61s.49,3.46,1.4,4.61c.99,1.24,2.39,1.89,4.04,1.89s3.05-.66,4.04-1.89c.91-1.15,1.4-2.8,1.4-4.61s-.49-3.46-1.4-4.61c-.99-1.24-2.39-1.89-4.04-1.89Zm112.92,0c-.82,0-1.61.16-2.26.45s-1.24.74-1.65,1.28c-.91,1.11-1.4,2.76-1.4,4.78,0,2.22.66,3.91,1.81,5.07,1.24,1.19,2.8,1.44,3.87,1.44,2.8,0,4.2-1.52,4.78-2.92l-1.56-.78c-.37.86-1.24,2.14-3.21,2.14-1.11,0-2.02-.45-2.68-1.28-.62-.82-.99-1.94-.99-3.29h8.57v-1.19c0-2.06-.54-3.58-1.56-4.53-.86-.78-2.1-1.15-3.71-1.15Zm-92.86.04c-2.22,0-5.35,1.48-5.35,6.47s3.13,6.47,5.23,6.47c1.24,0,2.35-.7,3.13-1.65l.12-.04v2.39c0,1.69-1.44,2.72-3.01,2.72-1.48,0-2.84-.29-3.91-.78v1.69c.91.41,2.39.62,3.67.62,3.46,0,5.15-1.89,5.15-4.69v-12.93h-1.44l-.41,1.32c-.74-.95-1.69-1.56-3.17-1.56Zm12.64,0c-2.8,0-4.08,1.65-4.65,2.72l1.56.82c.21-.58.99-1.98,3.13-1.98,1.65,0,2.51.74,2.51,2.18v.45s0,.12-.04.16c-.08.08-.25.12-.66.16-2.35.25-3.87.66-5.02,1.36-1.24.78-2.02,1.89-2.02,3.46,0,1.07.54,2.02,1.24,2.68.66.62,1.52.91,2.47.95,2.06.08,3.42-.78,4.08-1.81.04.7.29,1.07.86,1.36.49.29,1.36.21,1.73.12v-1.32c-.45-.04-.7-.25-.7-.78v-6.75c0-1.24-.49-2.26-1.44-2.92-.82-.58-1.89-.86-3.05-.86Zm13.47,0c-1.28,0-2.59.66-3.67,1.89v-1.65h-1.98v12.52h1.98v-9.31c.66-.7,2.14-1.89,3.5-1.89s1.98.66,1.98,2.18v9.06h1.98v-9.1c-.04-2.72-1.98-3.71-3.79-3.71Zm35.42,0c-2.76,0-4.08,1.65-4.65,2.72l1.56.82c.21-.58.99-1.98,3.13-1.98,1.65,0,2.51.74,2.51,2.18v.45s0,.12-.04.16c-.04.08-.21.12-.62.16-2.35.25-3.87.66-5.02,1.36-1.24.78-2.02,1.89-2.02,3.46,0,1.07.54,2.02,1.24,2.68.66.62,1.52.91,2.47.95,2.06.08,3.42-.78,4.08-1.81.04.7.29,1.07.86,1.36.49.29,1.36.21,1.73.12v-1.32c-.45-.04-.7-.25-.7-.78v-6.75c0-1.24-.54-2.26-1.44-2.92-.86-.58-1.94-.86-3.09-.86Zm13.47,0c-1.28,0-2.59.66-3.67,1.89v-1.65h-1.98v12.52h1.98v-9.31c.66-.7,2.14-1.89,3.5-1.89s1.98.66,1.98,2.18v9.06h1.98v-9.1c-.04-2.72-1.94-3.71-3.79-3.71Zm-81.08.04c-1.98,0-3.17.78-4.16,2.59v-2.39h-1.98v12.52h1.98v-7.08c.49-2.59,1.85-3.79,4.16-3.79v-1.85Zm105.55.16l4.37,12.44v.12c-.25,1.19-1.03,2.68-1.69,3.13-.62.41-1.24.45-1.73.45-.25,0-.74-.08-.95-.12v1.52c.29.08.91.16,1.28.16.95,0,1.73-.25,2.39-.7.78-.58,1.69-2.06,2.1-3.38l4.37-13.59h-1.89l-2.84,9.64-.04.21-.04-.21-3.38-9.64h-1.94v-.04Zm-119.51,1.32c2.1,0,3.38,1.85,3.38,4.94s-1.24,4.94-3.38,4.94-3.38-1.85-3.38-4.94,1.28-4.94,3.38-4.94Zm20.18,0c1.11,0,2.06.49,3.01,1.61v5.97c-.49,1.44-1.98,2.26-3.01,2.26-2.02,0-3.42-1.28-3.42-5.02,0-3.13,1.28-4.82,3.42-4.82Zm92.82,0c2.22,0,3.25,1.19,3.25,3.75h-6.59c.16-2.55,1.24-3.75,3.34-3.75Zm-77.71,4.45v3.17c-.08,1.11-2.14,2.43-3.83,2.35-.91-.04-1.81-.78-1.89-2.02-.16-2.02,1.36-2.88,4.78-3.25.25-.04.7-.12.95-.25Zm48.88,0v3.17c-.08,1.11-2.14,2.43-3.83,2.35-.91-.04-1.81-.78-1.89-2.02-.16-2.02,1.36-2.88,4.78-3.25.25-.04.74-.12.95-.25Z"/>
</svg>